<svg width="52" height="52" viewBox="0 0 52 52" fill="none" xmlns="http://www.w3.org/2000/svg">
<path d="M33.523 1.6441C37.1762 2.72555 40.9752 3.88621 43.701 6.48788C46.393 9.0573 47.348 12.7955 48.7675 16.1945C50.1345 19.4677 51.7103 22.6876 51.9389 26.2136C52.1713 29.7999 51.5414 33.4168 50.0985 36.7246C48.6569 40.0295 46.3179 42.8663 43.6107 45.3061C40.911 47.739 37.8274 49.7722 34.3429 50.9235C30.8676 52.0718 27.1719 52.0664 23.5036 51.9494C19.714 51.8286 15.7651 51.9116 12.3938 50.2236C9.00191 48.5253 6.49811 45.5169 4.42919 42.3989C2.42784 39.3827 1.28625 35.9494 0.583749 32.425C-0.104738 28.971 -0.190806 25.4647 0.360635 21.9874C0.922792 18.4425 1.82617 14.9019 3.83918 11.897C5.87414 8.85925 8.87215 6.61189 11.9907 4.6264C15.1719 2.60106 18.5265 0.670989 22.2904 0.149679C26.0731 -0.374234 29.8677 0.56201 33.523 1.6441Z" fill="#00DB2C"/>
<path d="M50.1211 36.6997C48.6772 40.0036 46.3396 42.8465 43.6288 45.2833C40.9277 47.72 37.8437 49.7507 34.3569 50.9032C30.8799 52.0557 27.1869 52.0447 23.5135 51.924C19.7222 51.8033 15.7738 51.8911 12.4049 50.2007C9.01633 48.4994 6.51174 45.4918 4.43932 42.3745C4.11519 41.8806 3.81071 41.3866 3.52588 40.8708C5.25454 43.099 7.28767 45.0857 9.81191 46.359C13.1808 48.0493 17.1292 47.9615 20.9205 48.0823C24.5939 48.203 28.2869 48.203 31.7639 47.0615C35.2507 45.9089 38.3348 43.8783 41.0358 41.4415C43.7466 39.0048 46.0842 36.1619 47.5281 32.858C48.9719 29.5541 49.6005 25.9319 49.3648 22.3426C49.1389 18.8191 47.5575 15.5921 46.1923 12.3211C45.4065 10.4441 44.7681 8.46839 43.9038 6.6463C46.4477 9.20381 47.3906 12.848 48.7755 16.1629C50.1407 19.4338 51.722 22.6499 51.9479 26.1843C52.1935 29.7736 51.5649 33.3958 50.1211 36.6997Z" fill="#21C341"/>
<path d="M12.2833 21.3516C13.3499 21.3516 14.2146 20.3852 14.2146 19.193C14.2146 18.0009 13.3499 17.0345 12.2833 17.0345C11.2167 17.0345 10.3521 18.0009 10.3521 19.193C10.3521 20.3852 11.2167 21.3516 12.2833 21.3516Z" fill="black"/>
<path d="M36.608 21.3516C37.6746 21.3516 38.5393 20.3852 38.5393 19.193C38.5393 18.0009 37.6746 17.0345 36.608 17.0345C35.5414 17.0345 34.6768 18.0009 34.6768 19.193C34.6768 20.3852 35.5414 21.3516 36.608 21.3516Z" fill="black"/>
<path d="M33.2972 19.964C33.3432 19.964 33.3892 20.0154 33.3892 20.0668C33.3892 22.8421 31.4742 28.6418 27.5197 28.6418L19.7433 29.5109C15.7888 29.4595 15.502 22.7907 15.502 20.0154C15.502 19.964 15.5479 19.9126 15.5939 19.9126L33.2972 19.964ZM22.3074 20.7863H19.3185C19.1346 20.7863 18.9966 20.9405 18.9966 21.1461V21.2489C18.9966 22.174 19.6864 22.8935 20.5141 22.8935H21.1118C21.9395 22.8935 22.6293 22.174 22.6293 21.2489V21.1975C22.6293 20.9919 22.4913 20.7863 22.3074 20.7863ZM29.5726 20.7863H26.5838C26.3998 20.7863 26.2619 20.9405 26.2619 21.1461V21.2489C26.2619 22.174 26.9976 22.9449 27.8713 22.9449H28.3311C29.2048 22.9449 29.9405 22.174 29.9405 21.2489V21.1975C29.8945 20.9919 29.7566 20.7863 29.5726 20.7863Z" fill="black"/>
<path d="M22.3075 20.7863C22.4914 20.7863 22.6293 20.9405 22.6293 21.146V21.2488C22.6293 22.1739 21.9396 22.8935 21.1119 22.8935H20.5141C19.6864 22.8935 18.9967 22.1225 18.9967 21.2488V21.1974C18.9967 20.9919 19.1347 20.8377 19.3186 20.8377L22.3075 20.7863Z" fill="white"/>
<path d="M29.5727 20.7863C29.7566 20.7863 29.8946 20.9405 29.8946 21.146V21.2488C29.8946 22.1739 29.1588 22.9449 28.2852 22.9449H27.8253C26.9517 22.9449 26.2159 22.1739 26.2159 21.2488V21.1974C26.2159 20.9919 26.3539 20.8377 26.5378 20.8377L29.5727 20.7863Z" fill="white"/>
<path d="M9.8002 22.2253H13.4788C13.7087 22.2253 13.8926 22.4309 13.8926 22.6879V23.3046C13.8926 23.5616 13.7087 23.7672 13.4788 23.7672H9.8002C9.57028 23.7672 9.38635 23.5616 9.38635 23.3046V22.6879C9.38635 22.4309 9.57028 22.2253 9.8002 22.2253Z" fill="#F38FBE"/>
<path d="M35.1826 22.8421L39.413 22.7907C39.505 23.0991 39.551 23.3561 39.459 23.5616C39.413 23.7158 39.2751 23.8186 39.1371 23.8186L35.4585 23.7672C35.2746 23.7672 35.1826 23.6644 35.1366 23.4588C35.0907 23.2533 35.0907 23.0477 35.1826 22.8421Z" fill="#F38FBE"/>
<path opacity="0.47" d="M41.5633 37.2806C37.5828 40.8206 33.8592 43.5659 28.9157 44.5773C25.8982 45.2275 22.8166 45.5165 19.6065 45.5165C17.3595 45.5165 12.9296 45.4443 13.5074 41.7598C13.5716 41.543 13.7 41.3263 13.8926 41.1818C15.2409 40.3871 16.8459 40.9651 18.2583 41.3263C19.0287 41.543 19.8633 41.6153 20.698 41.6153C24.9994 41.6153 28.7231 41.0373 31.9331 39.9536C36.4914 38.4365 39.9583 34.174 42.8473 29.8393C43.4251 28.9724 44.1313 28.3944 44.9659 28.1777C45.6722 27.961 46.3142 28.4667 46.5068 29.1892C46.5068 29.2614 46.571 29.4059 46.571 29.4781C46.6994 32.5124 43.4893 35.5467 41.5633 37.2806Z" fill="white" fill-opacity="0.79"/>
<path opacity="0.47" d="M17.5681 3.93387C15.297 5.06084 13.9779 7.30624 14.6217 8.94911C15.2655 10.592 17.6285 11.0102 19.8995 9.88324C22.1706 8.75627 23.4897 6.51087 22.8459 4.86799C22.2021 3.22512 19.8391 2.80689 17.5681 3.93387Z" fill="white" fill-opacity="0.79"/>
<path opacity="0.47" d="M28.0207 5.14872C26.7206 5.34654 25.763 6.30826 25.8817 7.29678C26.0005 8.2853 27.1508 8.92628 28.4509 8.72846C29.751 8.53064 30.7086 7.56892 30.5899 6.5804C30.4711 5.59188 29.3208 4.95089 28.0207 5.14872Z" fill="white" fill-opacity="0.79"/>
</svg>
